General
ID                                       : 1 (0x1)
Complete name                            : BD_ISO://BDMV/STREAM/00001.m2ts
Format                                   : BDAV
Format/Info                              : Blu-ray Video
File size                                : 21.4 GiB
Duration                                 : 1 h 45 min
Overall bitrate mode                     : Variable
Overall bitrate                          : 28.9 Mb/s
Maximum Overall bitrate                  : 35.5 Mb/s

Video
ID                                       : 4113 (0x1011)
Menu ID                                  : 1 (0x1)
Format                                   : MPEG Video
Format version                           : Version 2
Format profile                           : Main@High
Format settings                          : BVOP
Format settings, BVOP                    : Yes
Format settings, Matrix                  : Default
Format settings, GOP                     : M=3, N=15
Codec ID                                 : 2
Duration                                 : 1 h 45 min
Bitrate mode                             : Variable
Bitrate                                  : 16.5 Mb/s
Maximum bitrate                          : 24.0 Mb/s
Width                                    : 1 920 pixels
Height                                   : 1 080 pixels
Display aspect ratio                     : 16:9
Frame rate                               : 23.976 (24000/1001) FPS
Color space                              : YUV
Chroma subsampling                       : 4:2:0
Bit depth                                : 8 bits
Scan type                                : Progressive
Compression mode                         : Lossy
Bits/(Pixel*Frame)                       : 0.332
Stream size                              : 12.2 GiB (57%)

Audio #1
ID                                       : 4352 (0x1100)
Menu ID                                  : 1 (0x1)
Format                                   : DTS
Format/Info                              : Digital Theater Systems
Format profile                           : MA / Core
Muxing mode                              : Stream extension
Codec ID                                 : 134
Duration                                 : 1 h 45 min
Bitrate mode                             : Variable / Constant
Bitrate                                  : 4 231 kb/s / 1 509 kb/s
Channel(s)                               : 6 channels
Channel positions                        : Front: L C R, Side: L R, LFE
Sampling rate                            : 48.0 kHz
Frame rate                               : 93.750 FPS (512 SPF)
Bit depth                                : 24 bits
Compression mode                         : Lossless / Lossy
Stream size                              : 3.13 GiB (15%)
Language                                 : English
Service kind                             : Complete Main

Audio #2
ID                                       : 4353 (0x1101)
Menu ID                                  : 1 (0x1)
Format                                   : AC-3
Format/Info                              : Audio Coding 3
Commercial name                          : Dolby Digital
Codec ID                                 : 129
Duration                                 : 1 h 45 min
Bitrate mode                             : Constant
Bitrate                                  : 448 kb/s
Channel(s)                               : 6 channels
Channel positions                        : Front: L C R, Side: L R, LFE
Sampling rate                            : 48.0 kHz
Frame rate                               : 31.250 FPS (1536 SPF)
Bit depth                                : 16 bits
Compression mode                         : Lossy
Stream size                              : 339 MiB (2%)
Language                                 : Spanish
Service kind                             : Complete Main

Audio #3
ID                                       : 4354 (0x1102)
Menu ID                                  : 1 (0x1)
Format                                   : AC-3
Format/Info                              : Audio Coding 3
Commercial name                          : Dolby Digital
Codec ID                                 : 129
Duration                                 : 1 h 45 min
Bitrate mode                             : Constant
Bitrate                                  : 224 kb/s
Channel(s)                               : 2 channels
Channel positions                        : Front: L R
Sampling rate                            : 48.0 kHz
Frame rate                               : 31.250 FPS (1536 SPF)
Bit depth                                : 16 bits
Compression mode                         : Lossy
Stream size                              : 170 MiB (1%)
Language                                 : English
Title                                    : Commentary by Cast (Jessica Alba, Michael Chiklis, Ioan Gruffudd)
Service kind                             : Director commentary

Subtitle #1
ID                                       : 4608 (0x1200)
Menu ID                                  : 1 (0x1)
Format                                   : PGS
Codec ID                                 : 144
Duration                                 : 1 h 44 min
Bitrate                                  : 20.3 kb/s
Frame rate                               : 23.976 FPS
Language                                 : English
Description                              : Presentation Graphics (SDH)

Subtitle #2
ID                                       : 4609 (0x1201)
Menu ID                                  : 1 (0x1)
Format                                   : PGS
Codec ID                                 : 144
Duration                                 : 1 h 43 min
Bitrate                                  : 18.1 kb/s
Frame rate                               : 23.976 FPS
Language                                 : Spanish
Description                              : Presentation Graphics